<?xml version="1.0" ?>
<!-- Uploaded to: SVG Repo, www.svgrepo.com, Generator: SVG Repo Mixer Tools -->
<svg fill="#000000" width="800px" height="800px" viewBox="0 0 512 512" xmlns="http://www.w3.org/2000/svg">
<g id="Globe">
<path d="M239.1907,52.817c.0833-17.4829-25.9317-17.82-26.25-.35V83.7048a138.5111,138.5111,0,0,1,26.25,0v-4.55c178.08,17.9,178.1616,269.8209,0,287.9617v-4.6377a138.5111,138.5111,0,0,1-26.25,0v57.4881c-19.3543.6131-51.4746-3.7854-67.287,9.8886-12.3645,7.8463-32.9685,38.8858-7.088,42.6114H313.4781a12.69,12.69,0,0,0,11.9885-16.6242,52.4247,52.4247,0,0,0-49.7891-35.8758H239.1907v-26.6C452.0532,374.0206,452.2092,72.1883,239.1907,52.817Z"/>
<path d="M339.03,236.2167H282.59c-1.662,38.5878-10.5871,75.7753-26.5106,96.6A113.6917,113.6917,0,0,0,339.03,236.2167Z"/>
<path d="M226.0657,323.7167c9.9762,0,27.7368-32.9877,30.2746-87.5H195.7034C198.2413,290.729,216.004,323.7167,226.0657,323.7167Z"/>
<path d="M195.9662,332.7294c-15.9256-20.825-24.8508-58.0125-26.5128-96.5127H113.1039A113.6043,113.6043,0,0,0,195.9662,332.7294Z"/>
<path d="M256.08,113.3663c15.9235,20.7385,24.8486,57.926,26.5106,96.6H339.03A113.693,113.693,0,0,0,256.08,113.3663Z"/>
<path d="M226.0657,122.4667c-10.0617,0-27.8244,32.9-30.3623,87.5H256.34C253.8025,155.3667,236.0419,122.4667,226.0657,122.4667Z"/>
<path d="M195.9662,113.4539a113.6058,113.6058,0,0,0-82.8623,96.5128h56.3495C171.1154,171.38,180.0406,134.28,195.9662,113.4539Z"/>
</g>
</svg>